<svg xmlns="http://www.w3.org/2000/svg" viewBox="0 0 900 560" role="img" aria-label="Cocktail counter">
  <defs><linearGradient id="bg" x1="0" y1="0" x2="1" y2="1"><stop stop-color="#0f0610"/><stop offset=".5" stop-color="#321033"/><stop offset="1" stop-color="#f5c970"/></linearGradient><linearGradient id="gold" x1="0" y1="0" x2="1" y2="1"><stop stop-color="#fff7cc"/><stop offset=".5" stop-color="#f5c970"/><stop offset="1" stop-color="#a76425"/></linearGradient><filter id="g"><feGaussianBlur stdDeviation="9"/></filter></defs>
  <rect width="900" height="560" fill="url(#bg)"/>
  <rect y="370" width="900" height="190" fill="#080308" opacity=".72"/>
  <g opacity=".45"><circle cx="755" cy="105" r="125" fill="#ff4f87" filter="url(#g)"/><circle cx="170" cy="180" r="150" fill="#7d49ff" filter="url(#g)"/></g>
  <g transform="translate(320 105)">
    <path d="M25 0h280L178 165v140h-28V165z" fill="none" stroke="url(#gold)" stroke-width="9" stroke-linejoin="round"/>
    <path d="M76 70h180c-24 50-55 76-90 78-38 2-69-23-90-78Z" fill="#ff4f87" opacity=".55"/>
    <circle cx="234" cy="64" r="18" fill="#fff2b8"/>
    <path d="M103 306h125" stroke="url(#gold)" stroke-width="10" stroke-linecap="round"/>
  </g>
  <g stroke="#fff7ee" opacity=".18"><path d="M0 408h900"/><path d="M60 448h780"/><path d="M140 488h620"/></g>
  <text x="54" y="90" fill="#f5c970" font-family="Inter, Arial" font-size="28" font-weight="900" letter-spacing="7">SIGNATURE DRINKS</text>
</svg>